<svg xmlns="http://www.w3.org/2000/svg" viewBox="0 0 72.84 65.28"><defs><style>.cls-1{fill:#953982;}</style></defs><g id="Layer_2" data-name="Layer 2"><g id="Layer_1-2" data-name="Layer 1"><path class="cls-1" d="M70.82,16.13l-15.26-.77a5.81,5.81,0,0,0,3.52-4.22c.29-1.92-3.1-7.3-7.57-7.3-4.66,0-7.8.77-15.49,10.76C31.57.77,26,0,21.33,0a7.91,7.91,0,0,0-8.09,7.68c0,4.24,3.76,6.53,7,7.68H2a2,2,0,0,0-2,1.92V28.8a2,2,0,0,0,2,1.92h2V63.36a2,2,0,0,0,2,1.92h60.7a2,2,0,0,0,2-1.92V30.72h2a2,2,0,0,0,2-1.92V17.28C72.84,16.22,71.94,16.13,70.82,16.13ZM51.51,7.3a4.56,4.56,0,0,1,4.05,4.22c0,2.12-4.77,3.84-7,3.84H38.77C45.73,6.15,49,6.92,51.51,7.3Zm-34.23.38c0-2.11,2.75-4.22,5-4.22,4,0,10.57,8,11.81,11.9h-7C19.83,13.44,17.28,9.8,17.28,7.68Zm-14,10.75h32v10H2.43Zm4,12.29L35.21,30V62.21L6.07,63.36ZM65.56,63.36,38.45,62.21V30l27.11.77Zm4-35.71-31.16.77v-10l32.37-.38Z"/></g></g></svg>