<svg xmlns="http://www.w3.org/2000/svg" viewBox="0 0 65.28 78.52"><defs><style>.cls-1,.cls-2{fill:#953982;}.cls-2{fill-rule:evenodd;}</style></defs><g id="Layer_2" data-name="Layer 2"><g id="Layer_1-2" data-name="Layer 1"><path class="cls-1" d="M29.26,45.43c0-1.36.24-2.86,1.58-2.86A2.39,2.39,0,0,1,33.2,45v2a12.65,12.65,0,0,1,3.06,1.7,5.39,5.39,0,0,1,1.84,4.24H33.8a2.44,2.44,0,0,0-.6-1.71,2.31,2.31,0,0,0-1.86-.69,2.38,2.38,0,0,0-1.68.55,1.84,1.84,0,0,0-.6,1.41,1.57,1.57,0,0,0,.67,1.31,6.83,6.83,0,0,0,2.3.86,16.43,16.43,0,0,1,2.71.81c2.27.94,3.36,2,3.36,4.33a6.07,6.07,0,0,1-1.84,4.59,6.34,6.34,0,0,1-2.15,1.14v1.21a2.44,2.44,0,0,1-2.42,2.46c-1.34,0-1.57-1.1-1.57-2.46V65.53a16,16,0,0,1-2.35-.42,6.4,6.4,0,0,1-2.46-2.23,5.74,5.74,0,0,1-.89-3.08H28.5a2.67,2.67,0,0,0,.85,2,3.13,3.13,0,0,0,2.11.68A2.81,2.81,0,0,0,33.32,62,1.72,1.72,0,0,0,34,60.56a1.57,1.57,0,0,0-.79-1.4,8.09,8.09,0,0,0-2.5-.92q-5.75-1.37-5.75-5.51a5.25,5.25,0,0,1,1.78-4,6.05,6.05,0,0,1,2.56-1.37Z"/><path class="cls-2" d="M30.12,19A10.59,10.59,0,1,1,19.53,8.26,10.67,10.67,0,0,1,30.12,19Zm-3.85,0a6.74,6.74,0,1,1-6.74-6.83A6.79,6.79,0,0,1,26.27,19Z"/><path class="cls-2" d="M63.6,37.13l-33-35.45A5.2,5.2,0,0,0,26.16,0L1.66,4c-2.61.25.56.42.32,3.06L0,26.55A5.44,5.44,0,0,0,1.66,31.1L13.21,42.83a23.11,23.11,0,0,0-4.07,13A22.59,22.59,0,0,0,31.53,78.52,22.47,22.47,0,0,0,53.83,55.8c0-.83-.08-1.65-.16-2.48L63.6,43.24C65.88,41.09,65.79,39.28,63.6,37.13ZM31.53,74.47c-10.18,0-20.13-8.34-20.13-18.67s10-18.67,20.13-18.67a18.67,18.67,0,0,1,0,37.34Zm29.38-34-8.22,8.26A22.36,22.36,0,0,0,31.53,33.16a22.11,22.11,0,0,0-15.71,6.61L4.42,28.28A1.52,1.52,0,0,1,4,27L5.89,7.46A1.65,1.65,0,0,1,7.35,6l19.21-1.9c0-.09.08-.09.16-.09a1.59,1.59,0,0,1,1.14.5L61,38.12A1.88,1.88,0,0,1,60.91,40.43Z"/></g></g></svg>