<svg xmlns="http://www.w3.org/2000/svg" viewBox="0 0 88.93 87.98"><defs><style>.cls-1,.cls-2{fill:#953982;}.cls-2{fill-rule:evenodd;}</style></defs><g id="Layer_2" data-name="Layer 2"><g id="Layer_1-2" data-name="Layer 1"><path class="cls-1" d="M23.45,21.38a2,2,0,1,1-2-2.06A2,2,0,0,1,23.45,21.38Z"/><path class="cls-1" d="M40.42,21.38a2,2,0,1,1-2-2.06A2,2,0,0,1,40.42,21.38Z"/><path class="cls-2" d="M28.74,32.86l-.18-.14-1-.77a9.43,9.43,0,0,1-1.42-1.31,3.39,3.39,0,0,1-.84-1.8,3.29,3.29,0,0,1,.5-2.1,4.53,4.53,0,0,1,4-2.07,4.54,4.54,0,0,1,4,2.07,3.32,3.32,0,0,1,.47,2.09,3.65,3.65,0,0,1-.78,1.75A10.27,10.27,0,0,1,32.2,31.9l-.55.49-.48.44c0,.28,0,.67-.05,1.09s0,.89-.06,1.34A7.89,7.89,0,0,0,36.87,30a1.2,1.2,0,0,1,1.56-.71c.63.24.24.3,0,.93-1.68,4.49-4.65,7.6-8.34,7.65s-7.28-2.32-8.61-6.95a1.22,1.22,0,0,1,.82-1.53c.64-.2.27.87.46,1.53.85,2.95,3.8,3.87,5.88,4.34,0-.48,0-1,.05-1.4S28.73,33.12,28.74,32.86Zm1-5.73a2.15,2.15,0,0,0-1.9.86.9.9,0,0,0-.18.55A1,1,0,0,0,28,29,7.21,7.21,0,0,0,29,30l.9.68.18-.16.48-.44a8.22,8.22,0,0,0,.95-1,1.16,1.16,0,0,0,.29-.57.83.83,0,0,0-.15-.52A2.16,2.16,0,0,0,29.76,27.13Z"/><path class="cls-2" d="M78.89,57.19h8.6a1.41,1.41,0,0,1,1,.43,1.51,1.51,0,0,1,.42,1V79.18a1.52,1.52,0,0,1-.42,1,1.41,1.41,0,0,1-1,.43H54.74C52.86,85,49,88,44.46,88a10.87,10.87,0,0,1-8.57-4.44,11.78,11.78,0,0,1-11.54,0A10.87,10.87,0,0,1,15.78,88C9.45,88,4.3,82.06,4.3,74.78a14.71,14.71,0,0,1,1.43-6.36,8.67,8.67,0,0,1-4-3A9,9,0,0,1,0,60.71v-.2l.14-2v-.05A22,22,0,0,1,12.09,40.63,22.07,22.07,0,0,1,7.16,26.39a23.39,23.39,0,0,1,1.05-7A10,10,0,0,1,4.7,16.19,10.44,10.44,0,0,1,3.38,7,10.21,10.21,0,0,1,5.86,2.94a10,10,0,0,1,4-2.46A9.71,9.71,0,0,1,14.52.14,9.82,9.82,0,0,1,18.83,2a10.06,10.06,0,0,1,3,3.64A26.92,26.92,0,0,1,30.1,4.4a26.83,26.83,0,0,1,8.25,1.23,10.27,10.27,0,0,1,3-3.64A9.87,9.87,0,0,1,45.68.14a9.74,9.74,0,0,1,4.67.34,10.09,10.09,0,0,1,4,2.46A10.21,10.21,0,0,1,56.83,7a10.44,10.44,0,0,1-1.32,9.2A10,10,0,0,1,52,19.34a23.39,23.39,0,0,1,1,7.05,22.07,22.07,0,0,1-4.93,14.24,22.91,22.91,0,0,1,7.82,6.67V38.13a1.44,1.44,0,0,1,.26-.84l10-14.67a1.41,1.41,0,0,1,.51-.46,1.37,1.37,0,0,1,1.32,0,1.53,1.53,0,0,1,.52.46l10,14.67a1.44,1.44,0,0,1,.26.84ZM67.41,26,76,37.29l-17.21-.7Zm-8.6,13.57L76,38.65l.78,17.68-16.9.86a25.49,25.49,0,0,0-1.09-4.4ZM54.5,68.41A8.6,8.6,0,0,0,58,66a15,15,0,0,0,2.18-5.28.67.67,0,0,0,0-.2l0-.39,5.71-.51V77.72H55.65a15.26,15.26,0,0,0,.29-2.94c0-.22-.1-.53-.17-.91A34.84,34.84,0,0,0,54.5,68.41Zm2.71-9.68.13,1.88A6,6,0,0,1,56,64a5.74,5.74,0,0,1-3.06,1.87,11,11,0,0,0-7-4.15,25.87,25.87,0,0,0-5.44-15.32,26.57,26.57,0,0,0,6.07-4.3c6.57,3.22,9.93,9.45,10.71,16.66ZM47.3,2.47a7.55,7.55,0,0,1,4.37,2,7.29,7.29,0,0,1,2.57,3.91A7.46,7.46,0,0,1,54,13c-.59,1.49-1.24,3.14-2.6,3.95a24.07,24.07,0,0,0-4.43-6.16A27.31,27.31,0,0,0,40,6.3a9.4,9.4,0,0,1,3-3.14A8.71,8.71,0,0,1,47.3,2.47ZM5.72,10.26a7.43,7.43,0,0,1,1.5-4.48,7.06,7.06,0,0,1,8.5-2.26c1.46.64,3.33,1.36,4.1,2.78a25.55,25.55,0,0,0-6.53,4.53A23.89,23.89,0,0,0,8.91,17c-1.08-.64-1.61-2-2.24-3.08A7.5,7.5,0,0,1,5.72,10.26Zm8.65,2.66C18,9.26,24.06,7.33,30.1,7.33s11.17,1.35,14.81,5c3.4,3.43,6.44,8.8,6.44,14.06s-3,10.82-6.44,14.24c-3.64,3.66-8.76,4.83-14.81,4.83S18,44.29,14.37,40.63C11,37.21,10,31.66,10,26.39S11,16.35,14.37,12.92ZM2.87,60.61,3,58.73c.77-7.21,3.72-13.44,10.29-16.66a29,29,0,0,0,6.52,4.31,26,26,0,0,0-5.44,15.31,11,11,0,0,0-7,4.16A5.75,5.75,0,0,1,4.27,64,6.07,6.07,0,0,1,2.87,60.61ZM15.78,85.93c-4.75,0-8.61-5.49-8.61-11.15S11,64,15.78,64s8.6,5.15,8.6,10.81S20.52,85.93,15.78,85.93Zm14.34-3.81a9.3,9.3,0,0,1-4.25-1.07,14.59,14.59,0,0,0,1.38-6.27c0-6.7-4.37-12.25-10-13.08.28-5.72,1.38-11.07,4.6-14.4a33.93,33.93,0,0,0,8.26,1.09,34.18,34.18,0,0,0,8.3-1.09C41.64,50.63,42.72,56,43,61.7c-5.64.83-10,6.38-10,13.08a14.59,14.59,0,0,0,1.38,6.27A9.3,9.3,0,0,1,30.12,82.12Zm14.34,2.93a10,10,0,0,1-9.69-9.81c0-5.66,4.95-11.27,9.69-11.27s8.61,5.15,8.61,10.81S49.21,85.05,44.46,85.05Zm41.6-7.33-18,.81-.66-18.92L86.5,59.2Z"/></g></g></svg>