<svg xmlns="http://www.w3.org/2000/svg" viewBox="0 0 78.52 92.71"><defs><style>.cls-1,.cls-2{fill:#953982;}.cls-2{fill-rule:evenodd;}</style></defs><g id="Layer_2" data-name="Layer 2"><g id="Layer_1-2" data-name="Layer 1"><path class="cls-1" d="M33.42,36.37a2.07,2.07,0,1,1-2.06-2.12A2.09,2.09,0,0,1,33.42,36.37Z"/><path class="cls-1" d="M49.63,36.37a2.07,2.07,0,1,1-2.07-2.12A2.09,2.09,0,0,1,49.63,36.37Z"/><path class="cls-1" d="M34.76,46.39a1,1,0,0,0-1.3-.68A1.07,1.07,0,0,0,32.79,47c1.24,3.93,4,5.86,6.79,5.68S44.89,50.39,45.8,47a1.07,1.07,0,0,0-.72-1.31c-.55-.15-1,1.38-1.31,2.09a4.24,4.24,0,0,1-4.31,2.82C37.76,50.71,35.77,49.61,34.76,46.39Z"/><path class="cls-2" d="M72.51,63.54a26.52,26.52,0,0,1-5.92,6.89A23.77,23.77,0,0,1,78.52,91.21v1.5H0v-1.5A23.77,23.77,0,0,1,11.93,70.43,26.52,26.52,0,0,1,6,63.54l-.76-1.37,1.37-.71A15,15,0,0,0,14.93,48.3l-.39-26.79A13.33,13.33,0,0,1,22.44,9.2l2.49-2.56A21.6,21.6,0,0,1,40.51,0h.38A22.63,22.63,0,0,1,57.22,6.94,23.88,23.88,0,0,1,64,23.7V48.3A14.67,14.67,0,0,0,71.9,61.46l1.37.71ZM40.89,3h-.38C35.4,3,31.67,5,26.63,7.77L23.78,10.6C26.45,17.77,34,23.08,41.5,23.85l15.72,2.32-.69,10.2c-1.3,9.31-2.84,16.26-10,21.34l-.73,1.08a4.15,4.15,0,0,0,2.34,4.14L63.59,69c2.67-1.86,6.06-4.61,7.07-6-5-3.22-9.59-8.46-9.59-14.64V23.7c0-5.53-2-12-5.82-15.93S46.28,3,40.89,3ZM45.8,73c2.81,0,5.09-3.24,5.09-5.71a1.27,1.27,0,0,0,0-.28l0-.17-2.69-1.13a8.36,8.36,0,0,1-1-.54c-1.07,2.3-5,4-7.39,4.73C40.65,71.05,44.12,73,45.8,73ZM30.38,65.71l-2.69,1.13,0,.17s-.26.09-.51.14-.52.09-.52.14c0,2.47,3.28,5.71,6.09,5.71,1.61,0,3.07-1.81,4-3l.11-.13a8.75,8.75,0,0,1-5.43-4.73A8.36,8.36,0,0,1,30.38,65.71ZM23.27,34.92c0,10.5,6.4,21.08,16,24.59,9.59-3.51,16-14.09,16-24.59l.59-7.33-14.63-.77a25.54,25.54,0,0,1-11.29-4.17l-3.29,2.88a7.49,7.49,0,0,0-3.36,6.31Zm16,26.47-.46-.16-.49-.17h0a29,29,0,0,1-3.93-1.55c0,.25,0,.5,0,.75a5.25,5.25,0,0,1-.64,2.67c.7,2.55,2.18,5.61,4.81,5.61s5.65-3.06,6.34-5.61a7.62,7.62,0,0,1-1.16-3.42,26.34,26.34,0,0,1-4,1.72ZM40.67,73a7.64,7.64,0,0,1-1.41-1.43A7.64,7.64,0,0,1,37.85,73L35.16,89.72h8.2ZM17.45,48.29c0,6.19-4.9,11.81-9.93,15,.8,1.14,3.36,2.89,5.72,4.5L14.93,69,31,62.93c1.26-.53,1.17-1.6,1.05-2.89,0-.4-.07-.82-.07-1.25V57.71C24.83,52.63,21.3,44.2,21.3,34.92V31.84c0-3.6.82-6.9,3.77-8.83l3.18-2.08A26.61,26.61,0,0,1,22,12c-3.09,1.85-5.51,7.22-5.51,11Zm0,21.74,7-2.21c.42,3.76,4.12,7,8.25,7a12,12,0,0,0,2.36-.62c.42-.13.79-.25,1-.3L32.21,89.72H3C3.5,81.86,10.27,73.05,17.45,70ZM45.5,89.52,41.94,73.85l.82.22h0a20.69,20.69,0,0,0,3,.7,7.82,7.82,0,0,0,8-6.7l9,3.05A23.6,23.6,0,0,1,76.17,90.59Z"/></g></g></svg>