<svg xmlns="http://www.w3.org/2000/svg" viewBox="0 0 114 65.74"><defs><style>.cls-1{fill:#ffd8f1;}</style></defs><g id="Layer_2" data-name="Layer 2"><g id="Layer_1-2" data-name="Layer 1"><path class="cls-1" d="M5.5,1.39c-.15,1.69-.19,2-.21,2.93A47.86,47.86,0,0,0,12.89,0a154.44,154.44,0,0,0-.37,15.55,35.42,35.42,0,0,1-5.15,0c.06-1,.1-2,.13-2.88A27.86,27.86,0,0,1,.22,17.08C.08,15.4,0,13.52,0,11.37A64,64,0,0,1,.55,1.55,18.24,18.24,0,0,1,5.5,1.39Z"/><path class="cls-1" d="M20.07,6.7a15.25,15.25,0,0,0-.08,2,53.86,53.86,0,0,0,.39,6.72,27.36,27.36,0,0,1-5.65,0c-.24-2.39-.34-4.76-.34-6.81A38.45,38.45,0,0,1,15,1.49c.51,0,2.39-.12,3.58-.12s3.37.06,5.57.28a24.33,24.33,0,0,0-.28,3.72V6.68C21.55,6.7,21.71,6.6,20.07,6.7Z"/><path class="cls-1" d="M28.84,1.29A10.82,10.82,0,0,1,34.3,2.52c3.55,2.08,4.2,6.32,1.45,9.14a7.45,7.45,0,0,1-4.62,2.09c.06.55.12,1.13.2,1.78a22.12,22.12,0,0,1-5.69-.13,34.2,34.2,0,0,1-.37-5.35,35.51,35.51,0,0,1,.81-8.58A25.57,25.57,0,0,1,28.84,1.29ZM31,12.18a1.34,1.34,0,0,0,.63-.44,1.48,1.48,0,0,0,.26-.83,1.39,1.39,0,0,0-.22-.74A1.24,1.24,0,0,0,31,9.71,18.5,18.5,0,0,0,31,12.18Z"/><path class="cls-1" d="M42.33.49a49.32,49.32,0,0,0,2.92,4.76A43.48,43.48,0,0,0,47.91.37a31.49,31.49,0,0,1,4.8,2.7,79.84,79.84,0,0,1-9.12,14.2,30.21,30.21,0,0,1-4.67-3.17,31.4,31.4,0,0,0,3-4.15,43.38,43.38,0,0,1-4.41-7.38A28,28,0,0,1,42.33.49Z"/><path class="cls-1" d="M57.12,10.49a65.4,65.4,0,0,1,7-.32A50,50,0,0,1,63.89,5a32.56,32.56,0,0,1,.18-3.69c1,0,1.49-.08,2.05-.08A14.25,14.25,0,0,1,70,1.9,42.14,42.14,0,0,1,70.29,8c0,2-.21,5.65-.49,8a142,142,0,0,0-16.36-.74,45.26,45.26,0,0,1-.55-6.68,31.73,31.73,0,0,1,.55-6.23A21.32,21.32,0,0,1,58,2.09,42.4,42.4,0,0,0,57.12,10.49ZM63.58,1.9a68.64,68.64,0,0,1-1.11,7.91,10.78,10.78,0,0,1-4-1,16.2,16.2,0,0,1-.16-2.09A12.93,12.93,0,0,1,60,.28,10.69,10.69,0,0,1,63.58,1.9Z"/><path class="cls-1" d="M84.92,4.48a52.15,52.15,0,0,1-3.31,6.16,35.65,35.65,0,0,0,2.45,2.62,20.76,20.76,0,0,1-4.16,3.61,11.13,11.13,0,0,1-2.47-3h-.07v1.75c-1.84.08-3.57.08-5.2,0A56.35,56.35,0,0,1,71.83,10a42.58,42.58,0,0,1,.75-8.58,32.74,32.74,0,0,1,5.51.31,40.44,40.44,0,0,0-.79,5.59l0,.59,0,0q1.92-3.21,3.51-6.58A14.41,14.41,0,0,1,84.92,4.48Z"/><path class="cls-1" d="M91.22,1.39c-.15,1.69-.19,2-.21,2.93A47.86,47.86,0,0,0,98.61,0c-.4,4.84-.47,9.42-.39,15.55a35.42,35.42,0,0,1-5.15,0c.07-1,.11-2,.13-2.88a27.86,27.86,0,0,1-7.28,4.43c-.12-1.67-.2-3.56-.2-5.7a64,64,0,0,1,.55-9.83A18.24,18.24,0,0,1,91.22,1.39Z"/><path class="cls-1" d="M104.46,1.25a10.92,10.92,0,0,1,2,.12A20.46,20.46,0,0,0,106,5.5c.62,0,1.29-.06,2,0a15.25,15.25,0,0,1,.64-4c1.23-.1,1.88-.16,2.45-.16a17.25,17.25,0,0,1,2.78.2,34.27,34.27,0,0,0-.52,6.32,48.58,48.58,0,0,0,.55,7.62c-.74,0-2,.1-3.06.1a13.86,13.86,0,0,1-2.32-.17A54.17,54.17,0,0,1,108,9.29c-.59,0-1.21,0-1.82,0,.08,2.45.27,4.46.45,6a29.12,29.12,0,0,1-5.6.24,58.83,58.83,0,0,1-.74-9,39.54,39.54,0,0,1,.29-5.1A36.61,36.61,0,0,1,104.46,1.25Z"/><path class="cls-1" d="M58.3,29.77a16.24,16.24,0,0,1,8.93,2.67,16,16,0,0,1,5.92,7.12,15.71,15.71,0,0,1-3.49,17.28,16.18,16.18,0,0,1-24.72-2.4,15.74,15.74,0,0,1,2-20A16.07,16.07,0,0,1,58.3,29.77Zm4.53,24.94a3.3,3.3,0,0,0,1.84-.54,3.25,3.25,0,0,0,1.44-3.34,3.39,3.39,0,0,0-.89-1.68,3.34,3.34,0,0,0-5.1.45,3.24,3.24,0,0,0-.58,1.81,3.31,3.31,0,0,0,.24,1.25,3.08,3.08,0,0,0,.71,1.07,3.36,3.36,0,0,0,1.07.72,3.5,3.5,0,0,0,1.27.25Z"/><path class="cls-1" d="M94.54,32.34a41.32,41.32,0,0,1,3.35-4.77A90,90,0,0,1,114,52.15c-2,2.56-4.53,5.31-10,9.49a60.89,60.89,0,0,0-4.23-9.83,41.21,41.21,0,0,1-6,7.47,25.23,25.23,0,0,1-5.2-7.51A67.66,67.66,0,0,0,83,61.34c-4.7-4.26-6.8-6.92-8.47-9.78C81.44,39,87,32.41,91.92,27.89,92.75,29.22,93.65,30.7,94.54,32.34Z"/><path class="cls-1" d="M39.49,53.77c.06-3-.13-7-.21-9-2.49.34-2.36.34-6.73,1,0-4.26.15-3.67.21-6.75,0-1.46,0-3,0-4.47s.05-2.74.09-5.1c-3.15-.23-3.92-.37-8-.82A143.92,143.92,0,0,0,10.44,43.79l-6.28-.11c-.32,3.16-.49,5.68-.57,10,0,2.65-.09,4.72-.2,10.37l13.88.59c0-2.49.05-5,.31-9.4a35,35,0,0,0,4.69.37,22.59,22.59,0,0,0,3.08-.08,70.47,70.47,0,0,1-.9,9.44l13.66.74A56.06,56.06,0,0,0,39.49,53.77ZM27.23,40c0,.18-6-.71-6.1-.74l.06-.1a19.79,19.79,0,0,1,4.08-5.49l1.9.6A11.76,11.76,0,0,1,27.6,37a13.57,13.57,0,0,1-.37,3Z"/></g></g></svg>