<svg xmlns="http://www.w3.org/2000/svg" viewBox="0 0 78 44.98"><defs><style>.cls-1{fill:#ffd8f1;}</style></defs><g id="Layer_2" data-name="Layer 2"><g id="Layer_1-2" data-name="Layer 1"><path class="cls-1" d="M3.76,1c-.1,1.16-.12,1.4-.14,2a33.36,33.36,0,0,0,5.2-3,101.5,101.5,0,0,0-.25,10.64,26,26,0,0,1-3.53,0c0-.71.07-1.35.09-2a19,19,0,0,1-5,3C.06,10.54,0,9.25,0,7.78A42.25,42.25,0,0,1,.38,1.06,12.74,12.74,0,0,1,3.76,1Z"/><path class="cls-1" d="M13.73,4.58A10.93,10.93,0,0,0,13.67,6a39.12,39.12,0,0,0,.27,4.59,19.15,19.15,0,0,1-3.86,0c-.16-1.64-.23-3.26-.23-4.66A26.35,26.35,0,0,1,10.25,1C10.6,1,11.89.94,12.7.94s2.3,0,3.81.19a16.61,16.61,0,0,0-.19,2.54v.9C14.75,4.58,14.85,4.52,13.73,4.58Z"/><path class="cls-1" d="M19.73.88a7.5,7.5,0,0,1,3.74.84,3.9,3.9,0,0,1,1,6.26A5.08,5.08,0,0,1,21.3,9.41c0,.37.08.77.14,1.21a14.55,14.55,0,0,1-3.9-.08,23.66,23.66,0,0,1-.25-3.67A24.8,24.8,0,0,1,17.84,1Q18.78.9,19.73.88Zm1.46,7.46A1,1,0,0,0,21.61,8a1,1,0,0,0,.18-.57.89.89,0,0,0-.15-.5.88.88,0,0,0-.46-.32A10.72,10.72,0,0,0,21.19,8.34Z"/><path class="cls-1" d="M29,.33A37.59,37.59,0,0,0,31,3.6,29.35,29.35,0,0,0,32.78.25,21.5,21.5,0,0,1,36.06,2.1a54.91,54.91,0,0,1-6.23,9.72,21.17,21.17,0,0,1-3.2-2.17A22.17,22.17,0,0,0,28.7,6.81a28.71,28.71,0,0,1-3-5A18.72,18.72,0,0,1,29,.33Z"/><path class="cls-1" d="M39.08,7.18A45,45,0,0,1,43.87,7a32.44,32.44,0,0,1-.16-3.55A23.82,23.82,0,0,1,43.84.88c.68,0,1-.05,1.4-.05a9.52,9.52,0,0,1,2.65.47,27.39,27.39,0,0,1,.2,4.15,54.2,54.2,0,0,1-.34,5.49,97.06,97.06,0,0,0-11.18-.5,30.41,30.41,0,0,1-.38-4.57,21,21,0,0,1,.38-4.26,14.88,14.88,0,0,1,3.13-.18A28.6,28.6,0,0,0,39.08,7.18ZM43.5,1.3a46,46,0,0,1-.76,5.41A7.38,7.38,0,0,1,40,6a11.33,11.33,0,0,1-.11-1.43A8.92,8.92,0,0,1,41,.19,7.36,7.36,0,0,1,43.5,1.3Z"/><path class="cls-1" d="M58.1,3.06a33.51,33.51,0,0,1-2.26,4.22,21.72,21.72,0,0,0,1.68,1.79,14.26,14.26,0,0,1-2.85,2.47,7.41,7.41,0,0,1-1.69-2h0v1.2a35.2,35.2,0,0,1-3.56,0,38.64,38.64,0,0,1-.22-3.88A28.83,28.83,0,0,1,49.66,1a22.64,22.64,0,0,1,3.77.2A27.58,27.58,0,0,0,52.89,5l0,.4h0a48.52,48.52,0,0,0,2.4-4.5A9.6,9.6,0,0,1,58.1,3.06Z"/><path class="cls-1" d="M62.41,1c-.1,1.16-.12,1.4-.14,2a33.36,33.36,0,0,0,5.2-3,104.08,104.08,0,0,0-.26,10.64,24.46,24.46,0,0,1-3.53,0c0-.7.07-1.35.09-2a19,19,0,0,1-5,3c-.08-1.15-.14-2.44-.14-3.91A42.25,42.25,0,0,1,59,1.06,12.34,12.34,0,0,1,62.41,1Z"/><path class="cls-1" d="M71.47.86a6.86,6.86,0,0,1,1.36.08,13.37,13.37,0,0,0-.29,2.82c.41,0,.88,0,1.35,0A10,10,0,0,1,74.33,1C75.16,1,75.61.91,76,.91a11.09,11.09,0,0,1,1.91.14,22.3,22.3,0,0,0-.36,4.32,32.46,32.46,0,0,0,.38,5.21c-.51,0-1.4.07-2.1.07a9.45,9.45,0,0,1-1.59-.11,36.66,36.66,0,0,1-.37-4.18H72.62c.06,1.67.18,3.05.31,4.1a20.44,20.44,0,0,1-3.83.16,39.56,39.56,0,0,1-.51-6.15A27.12,27.12,0,0,1,68.79,1,24,24,0,0,1,71.47.86Z"/><path class="cls-1" d="M39.89,20.37A11.12,11.12,0,0,1,46,22.2a10.81,10.81,0,0,1,4,4.87,10.68,10.68,0,0,1,.62,6.27,10.83,10.83,0,0,1-3,5.55,11.08,11.08,0,0,1-16.92-1.64,10.74,10.74,0,0,1-1.85-6,10.61,10.61,0,0,1,.82-4.16,10.86,10.86,0,0,1,6-5.88A11.08,11.08,0,0,1,39.89,20.37ZM43,37.43a2.23,2.23,0,0,0,1.26-.36,2.27,2.27,0,0,0,.84-1A2.24,2.24,0,0,0,43.47,33a2.34,2.34,0,0,0-1.31.11,2.3,2.3,0,0,0-1,.82,2.16,2.16,0,0,0-.39,1.23,2.27,2.27,0,0,0,.16.86,2.13,2.13,0,0,0,.49.73,2.23,2.23,0,0,0,.73.49,2.18,2.18,0,0,0,.87.17Z"/><path class="cls-1" d="M64.69,22.13A27.29,27.29,0,0,1,67,18.87,61.41,61.41,0,0,1,78,35.68a34,34,0,0,1-6.81,6.49,42,42,0,0,0-2.9-6.72,28.48,28.48,0,0,1-4.12,5.11,17.34,17.34,0,0,1-3.56-5.14A45.54,45.54,0,0,0,56.81,42,26.77,26.77,0,0,1,51,35.28c4.7-8.6,8.54-13.11,11.87-16.2C63.46,20,64.07,21,64.69,22.13Z"/><path class="cls-1" d="M27,36.79c0-2.08-.09-4.82-.15-6.12-1.7.23-1.61.23-4.6.7,0-2.92.1-2.51.14-4.62,0-1,0-2.05,0-3.06s0-1.88.07-3.49C20.32,20,19.79,20,17,19.64A98.34,98.34,0,0,0,7.14,30l-4.29-.08c-.22,2.17-.34,3.89-.4,6.87,0,1.81-.06,3.23-.13,7.09l9.5.41c0-1.7,0-3.41.21-6.43a24.51,24.51,0,0,0,3.21.25,16.52,16.52,0,0,0,2.11,0,49.49,49.49,0,0,1-.62,6.45l9.35.51A39,39,0,0,0,27,36.79Zm-8.39-9.46a40.15,40.15,0,0,1-4.17-.5l0-.07A13.68,13.68,0,0,1,17.29,23l1.3.41a8.66,8.66,0,0,1,.3,1.89,9.18,9.18,0,0,1-.26,2Z"/></g></g></svg>