<svg xmlns="http://www.w3.org/2000/svg" viewBox="0 0 1440 930"><defs><style>.cls-1{fill:#a34c91;}.cls-2{fill:#924282;fill-rule:evenodd;}</style></defs><g id="Layer_2" data-name="Layer 2"><g id="Layer_1-2" data-name="Layer 1"><g id="_4_со_штучками" data-name="4 со штучками"><path class="cls-1" d="M0,0H1440V868.39c-70,41.44-195.86,65.18-325,61.17-156.43-4.85-273-61.17-383-116.42s-235.5-80.9-372-80.9c-136,0-234,25.65-358,98.66V715.34Z"/><path class="cls-2" d="M1162,312.35c2.36-1.62,5.42-1.3,6.82.71s.62,4.94-1.75,6.56-5.42,1.3-6.82-.7S1159.61,314,1162,312.35Zm144,43.9,13.79,7.83c1,.53,1.82,1,1.32,2l-5.55,10.8a2.08,2.08,0,0,1-2.8.86l-1.88-.94-15.71,30.62a2.1,2.1,0,0,1-2.8.86L1236.05,380a2,2,0,0,1-1-2.74l15.71-30.62-1.87-.95a2,2,0,0,1-1-2.74l5.54-10.81a2.11,2.11,0,0,1,2.81-.86l16.89,8.5c-2.45-2.59-4.84-6.49-2.79-10.47a8.34,8.34,0,0,1,11.2-3.43c4.32,2.18,9.13,5.5,6.6,20.54,11.94-5.78,15.23-5,19.55-2.85,4.15,2.07,4.71,8.7,3.52,10.36A6.25,6.25,0,0,1,1306,356.25Zm1.84-3.6a4.73,4.73,0,0,0-1.71-5.85l-.17-.13c-2.15-1.53-4.93-3.52-15.54,1.75l9.09,4.56C1301.58,354,1306.83,354.63,1307.85,352.65Zm-27-23.11c-2.08-1-5.63-.33-6.65,1.65s-.41,6.59,5.42,11.79l6.45,3.24C1286.77,342,1284.52,331.4,1280.84,329.54Zm4.8,20.09L1256,334.72l-5.56,9L1280.83,359Zm-5.55,10.82-26.27-12.31L1237,378.2l27.58,12.5Zm-12.52,31.76,24.61,13.73,15.7-30.62L1283.1,362Zm16.27-31.69,29.29,13.8,5.74-8.44-30.22-14.73Zm-169.39,3.83a9.89,9.89,0,1,0-10-9.88A9.94,9.94,0,0,0,1114.45,364.35Zm243.4,14a10.62,10.62,0,0,0,4.4-14.45,10.85,10.85,0,0,0-14.61-4.35,10.64,10.64,0,0,0-4.4,14.46A10.86,10.86,0,0,0,1357.85,378.32ZM674.24,455a2.43,2.43,0,0,0,.07-3.35l-31.42-34.46a5.29,5.29,0,0,0-7.63-.16,5.15,5.15,0,0,0,.28,7.56l35.33,30.53A2.48,2.48,0,0,0,674.24,455ZM657,463.16a2.42,2.42,0,0,1-2.81,1.82l-60.49-11.21a5.25,5.25,0,0,1-4.2-6.36,5.33,5.33,0,0,1,6.64-3.86l59.16,16.75A2.4,2.4,0,0,1,657,463.16Zm-8.46,17.55a2.56,2.56,0,0,0-1.44-4.88l-22.18,3.91a5,5,0,1,0,2.78,9.45Zm84.69,288.14a13,13,0,0,0,5.73-17.63c-3.39-6.24-11.46-8.49-18-5s-9.12,11.39-5.73,17.63S726.62,772.34,733.18,768.85ZM973.59,851a3.24,3.24,0,0,1-1,4.46,3.3,3.3,0,0,1-4.3-1.65,3.22,3.22,0,0,1,1-4.45A3.29,3.29,0,0,1,973.59,851ZM755.91,727a3.24,3.24,0,0,0,1-4.46,3.29,3.29,0,0,0-4.29-1.64,3.22,3.22,0,0,0-1,4.45A3.3,3.3,0,0,0,755.91,727ZM683,541.34a3.21,3.21,0,0,1-1,4.45,3.28,3.28,0,0,1-4.29-1.65,3.2,3.2,0,0,1,1-4.44A3.28,3.28,0,0,1,683,541.34Zm111.86-36.07a3.22,3.22,0,0,0,1-4.45,3.31,3.31,0,0,0-4.3-1.65,3.23,3.23,0,0,0-1,4.45A3.29,3.29,0,0,0,794.85,505.27Zm-28,293a3.22,3.22,0,0,1-1,4.45,3.29,3.29,0,0,1-4.29-1.65,3.22,3.22,0,0,1,1-4.44A3.29,3.29,0,0,1,766.88,798.3Zm330.6,19a19,19,0,1,1-19-18.78A18.88,18.88,0,0,1,1097.48,817.33ZM521.28,680.61a12.85,12.85,0,1,0-13-12.85A12.91,12.91,0,0,0,521.28,680.61Zm134.81,48.92c0,4.09-3.58,7.41-8,7.41s-8-3.32-8-7.41,3.58-7.41,8-7.41S656.09,725.44,656.09,729.53ZM458.36,703.34c4.42,0,8-3.32,8-7.41a7.72,7.72,0,0,0-8-7.42c-4.41,0-8,3.33-8,7.42S454,703.34,458.36,703.34Zm317.56-20.26c0,4.09-3.57,7.41-8,7.41s-8-3.32-8-7.41,3.58-7.41,8-7.41S775.92,679,775.92,683.08Zm559.23,32.44-12.83-3.1,3.13,12.69Zm-7.76,12.11,10-9.89,25.92,25.65-10,9.89Zm21.73-171.25,9.78,8.75L1345.76,569Zm10.69,11.77-13.55,4,10.46,34.76,13.55-4ZM581.62,693.73,586,683.6l-10.8,2.64Zm-8.79-5.93,6.66,7.72-24.6,20.76-6.65-7.73Zm152.73,6.32c6.13-2.53,9.74-8.75,9.84-15.64L735,674a21.12,21.12,0,0,0-1.27-4.12l-.75-1.12h0c-1.37-2.09-3.72-5.67-4.81-6.63a12.68,12.68,0,0,0,3.42-5.24c.69-2,.36-7.22,0-8.32,0-.09-.07-.18-.11-.27l-.26-.5-2-3.79a35.53,35.53,0,0,0-4-5.31l-7-5.76a33.68,33.68,0,0,0-14.43-4.56,31.84,31.84,0,0,0-1.34-21.93,34.32,34.32,0,0,0-5.43-8.89,14.87,14.87,0,0,0,2.84-13.16,15.16,15.16,0,0,0-8.93-10.21,14.94,14.94,0,0,0-6.86-1.07,14.74,14.74,0,0,0-6.54,2.16,14.54,14.54,0,0,0-4.82,4.92,14.72,14.72,0,0,0-2,6.6,41.75,41.75,0,0,0-22.47,9.27,15.24,15.24,0,0,0-6.18-3.2,14.63,14.63,0,0,0-17.14,8.57,15,15,0,0,0,1.05,13.48,15.08,15.08,0,0,0,11.44,7.26,34.17,34.17,0,0,0,2.57,10.07,32.21,32.21,0,0,0,14.79,16.38c-7.4,8.93-9.54,19.48-6.18,30.65v0s0,0,0,0l.95,2.78a1.69,1.69,0,0,0,.12.27,13,13,0,0,0,5,5.38,12.78,12.78,0,0,0,7.13,1.77,21,21,0,0,0,1.66,9.36c4.12,9.79,14.49,14.86,23.11,11.3a15.9,15.9,0,0,0,9.16-10.78,17.6,17.6,0,0,0,15.72-6.5A16.2,16.2,0,0,0,725.56,694.12Zm.79-46.51,1.24,2.46a8.64,8.64,0,0,1,0,5.3,8.47,8.47,0,0,1-3.11,4.24A16.38,16.38,0,0,0,712.58,658c-3.74-7.87-9.53-14.17-16.09-17.55,2.26-2.31,4.4-6.27,5.83-9.19,10.78.63,18.89,7.13,24,16.38ZM681,577.53c2.2-.91,4.82-.42,7.08.2A10.8,10.8,0,0,1,696,588v.1c0,2.31.06,4.85-1.31,6.67a35.45,35.45,0,0,0-9.53-5.79,41.06,41.06,0,0,0-11.94-2.22,13.46,13.46,0,0,1,2.25-5.88C676.63,579.38,678.76,578.44,681,577.53Zm-52.22,33.86a10.77,10.77,0,0,1-.5-6.88,10.48,10.48,0,0,1,10.3-7.81h.55c2.25,0,4.9.06,6.62,1.42a36.75,36.75,0,0,0-6.33,9.77,34.16,34.16,0,0,0-2.48,10.74,8.63,8.63,0,0,1-4-2.22c-.27-.23-.55-.46-.82-.66A11,11,0,0,1,628.75,611.39Zm13.3-1.29c2.88-7,10-13,18.25-16.36s16-4.47,23-1.6c6.58,2.69,13.76,8.21,16.75,15.28s2,16.26-.71,22.77c-2.89,7-9.2,11.42-17.43,14.81s-17.13,5.24-24.16,2.36c-6.58-2.69-11-9.62-14-16.7S639.35,616.62,642.05,610.1Zm11.35,70.59-.89-2.6c-3-10.13-2.55-20.16,4.58-28.19A43.47,43.47,0,0,0,668.41,652c-2.18,7-1.74,15.5,1.27,23.64a16.11,16.11,0,0,0-7.22,9.53,8.52,8.52,0,0,1-5.25-.78A8.77,8.77,0,0,1,653.4,680.69Zm31.92,26.79c-6.46,2.67-14.82-2.54-18-10.15s-.87-16.71,5.59-19.38,14.65,2.09,17.85,9.7S691.79,704.81,685.32,707.48Zm17.38-13.19a13.52,13.52,0,0,1-6.39,1,21.07,21.07,0,0,0-1.67-9.2c-3.8-9-12.9-14-21-12-2.87-7.85-4.41-15.66-1.9-22a51.18,51.18,0,0,0,11.87-3.19,50.52,50.52,0,0,0,10.68-6.12c6.3,2.65,10.79,9.21,14.42,16.78-7.21,4.29-10,14.2-6.21,23.22a21.18,21.18,0,0,0,5.42,7.64A13.35,13.35,0,0,1,702.7,694.29Zm21.2-4.11c-6.46,2.65-15.56-.14-18.77-7.75s.36-17.94,6.82-20.61,14.65,2.1,17.86,9.71S730.36,687.51,723.9,690.18Zm-43.17-79.46a3,3,0,0,0,1.59-3.9,3,3,0,0,0-3.92-1.62,2.94,2.94,0,0,0-1.58,3.89A3,3,0,0,0,680.73,610.72Zm-23.12,9.55a3,3,0,0,0,1.59-3.9,3,3,0,0,0-3.92-1.63,3,3,0,0,0-1.59,3.9A3,3,0,0,0,657.61,620.27Zm15.3,8.55-.33-.08c-.64-.16-1.27-.3-1.83-.45a15.41,15.41,0,0,1-2.68-1,5.09,5.09,0,0,1-2.16-2,4.88,4.88,0,0,1-.52-3.11,6.65,6.65,0,0,1,4.26-5,6.77,6.77,0,0,1,6.61.53,4.77,4.77,0,0,1,1.83,2.55,5.39,5.39,0,0,1-.06,2.8,15,15,0,0,1-.95,2.46c-.16.35-.31.66-.47,1s-.27.56-.4.86l.54,1.5c.22.58.45,1.22.68,1.82,2.92-1.86,5.08-5.48,4.9-10.4a1.78,1.78,0,0,1,1.73-1.84c.68,0,.66.12.59.53a3.43,3.43,0,0,0-.06.73c.25,7-2,12.83-7,15s-11.22,1-15.67-4.52a1.78,1.78,0,0,1,.25-2.52c.49-.39.71.14,1,.78a4.27,4.27,0,0,0,.53,1c2.83,3.49,7.36,3.08,10.46,2.54l-.71-1.91C673.21,629.64,673,629.2,672.91,628.82Zm-1.86-8.26a3.14,3.14,0,0,0-2.1,2.22,1.29,1.29,0,0,0,.07.84,1.46,1.46,0,0,0,.65.52,12.2,12.2,0,0,0,2,.68c.51.14,1,.27,1.61.4l.16-.31.1-.22.3-.64a11.26,11.26,0,0,0,.74-1.87,1.88,1.88,0,0,0,.07-.93,1.13,1.13,0,0,0-.5-.61A3.22,3.22,0,0,0,671.05,620.56Zm400.46-221.78A23.47,23.47,0,1,1,1048,375.56,23.35,23.35,0,0,1,1071.51,398.78Zm258.56,41.11a8.48,8.48,0,1,1-9.47-7.3A8.42,8.42,0,0,1,1330.07,439.89Zm-138.58-57.45a12.46,12.46,0,0,0,5.15-16.95,12.72,12.72,0,0,0-17.13-5.1,12.45,12.45,0,0,0-5.15,16.95A12.72,12.72,0,0,0,1191.49,382.44ZM1175.31,484a3.22,3.22,0,0,1-1,4.46,3.3,3.3,0,0,1-4.3-1.65,3.23,3.23,0,0,1,1-4.45A3.3,3.3,0,0,1,1175.31,484ZM1380,361.36,1374.05,348l13.83,5Zm10.94-6.05-8.16,8.62,32.09,29.72L1423,385ZM1146.65,799.6a2.91,2.91,0,0,1,2.07-3.43,3,3,0,0,1,3.59,1.84l18.51,52.45a6.2,6.2,0,0,1-4.22,8,6.28,6.28,0,0,1-7.84-4.64ZM1168.17,777a4.78,4.78,0,0,0-.51,6.6L1226,855.17a10.46,10.46,0,0,0,15.07,1.16,10.21,10.21,0,0,0,.28-15l-66.5-64.23A4.92,4.92,0,0,0,1168.17,777ZM1385.35,654.3A18.72,18.72,0,0,1,1407.91,668a18.49,18.49,0,0,1-13.82,22.33,18.71,18.71,0,0,1-22.56-13.67A18.5,18.5,0,0,1,1385.35,654.3ZM1274.44,788.48c-1.94-2.79-6.17-3.22-9.46-1s-4.36,6.32-2.41,9.11,6.17,3.22,9.45,1S1276.39,791.26,1274.44,788.48ZM1342,812a19.46,19.46,0,1,0-17.18,21.28A19.42,19.42,0,0,0,1342,812Zm-251.47,81.89,5-21.34-68-15.68-5,21.34Zm29.22-4.17-23.34,5.53,4.87-20.7Zm268-85.43-20.42-8.84,23.14-52.4,20.42,8.84Zm-22.43-4.3,2.79,20.4,17-11.84Zm-3.83-343.82,12.17-5.05-2,13.42Zm15.31-4.57-2.11,13.83,36.24,5.41,2.11-13.84ZM910.79,860.87c4.44,6.58,13.06,8.59,19.25,4.5s7.61-12.74,3.17-19.32-13.06-8.6-19.25-4.51S906.35,854.28,910.79,860.87Zm-47.13-5.51a6.31,6.31,0,0,1-8.73-1.36,6.16,6.16,0,0,1,2.07-8.5,6.31,6.31,0,0,1,8.73,1.36A6.15,6.15,0,0,1,863.66,855.36ZM1133.34,392l2.24-15.24-13.66,7.38Zm-14-4.94,11.77,8.12-25.85,36.74-11.77-8.12ZM758.87,604.28a8.49,8.49,0,1,1-9.48-7.29A8.42,8.42,0,0,1,758.87,604.28Zm632.2-49.19c7.17,0,13-5.3,13-11.86s-5.81-11.86-13-11.86-13,5.31-13,11.86S1383.9,555.09,1391.07,555.09ZM1298.2,873.82c0,5.73-4.92,10.38-11,10.38s-11-4.65-11-10.38,4.91-10.37,11-10.37S1298.2,868.09,1298.2,873.82ZM1412,621.31c4.41,0,8-3.32,8-7.41s-3.58-7.42-8-7.42a7.72,7.72,0,0,0-8,7.42C1404.05,618,1407.62,621.31,1412,621.31Z"/></g></g></g></svg>