<svg xmlns="http://www.w3.org/2000/svg" viewBox="0 0 1439.98 969.03"><defs><style>.cls-1{fill:#ffd8f1;}.cls-2{fill:#f3bee1;fill-rule:evenodd;}</style></defs><g id="Layer_2" data-name="Layer 2"><g id="Layer_1-2" data-name="Layer 1"><path class="cls-1" d="M758,98C596.59,60,431.88-29.36,196,9.64A771.65,771.65,0,0,0,0,70.06V930.28s58.48,17.7,96.87,25c69.13,13,109.46,15.82,179.75,12.43C357,963.84,404,958.59,479.33,930.28c51-19.17,80-37.68,121.29-64,6.64-4.25,13.6-8.68,21-13.36,28.63-18.06,49.28-34.62,69.94-51.18s41.27-33.1,69.86-51.14c11.85-7.47,22.55-14.52,32.64-21.16,38.11-25.1,67.62-44.54,118.15-60.19,56.18-17.4,137.4-31.69,189.24-31.44,64.18-.85,125.87,12.75,193.23,31.44,59.81,16.59,145.3,64.38,145.3,64.38V11C1130.55,142.19,907.28,133.08,758,98Z"/><path class="cls-2" d="M79.51,190.41a5,5,0,1,0-6.62,3.34,5.25,5.25,0,0,0,6.62-3.34Zm-16.4,53.51a7.06,7.06,0,1,0-7.67,6.39h0A7,7,0,0,0,63.1,244S63.11,244,63.11,243.92ZM26.32,262.7a10.78,10.78,0,1,0-11.69,9.79h0A10.78,10.78,0,0,0,26.32,262.7ZM94.37,376.2A18,18,0,1,0,76.9,357.68c0,.17,0,.35,0,.52a17.73,17.73,0,0,0,17.46,18Zm-42.82,189a1.59,1.59,0,0,1,1.05,3L24.67,579.94A3.39,3.39,0,0,1,22,573.71a3,3,0,0,1,.42-.15ZM61,576a2.63,2.63,0,0,1,3.77,3.65L32,617.61a5.61,5.61,0,0,1-8.77-7,5.68,5.68,0,0,1,.77-.78Zm190.19,28.82a18,18,0,1,0-17.46-18.53c0,.18,0,.35,0,.53a17.74,17.74,0,0,0,17.43,18ZM141.8,761.5a17.48,17.48,0,1,1-17.47-18,17.71,17.71,0,0,1,17.47,18Zm251.65,66.88a17.48,17.48,0,1,1-17.47-18,17.71,17.71,0,0,1,17.47,18Zm-157.28-23a18,18,0,1,0-17.46-18.53c0,.18,0,.35,0,.53a17.75,17.75,0,0,0,17.43,18h0Zm-87.38-293a6,6,0,1,1-6-6.49,6.23,6.23,0,0,1,6,6.48v0ZM20,677.66a6.51,6.51,0,0,0,0-13,6.51,6.51,0,0,0,0,13ZM33,779a6.25,6.25,0,0,1-6,6.49,6.51,6.51,0,0,1,0-13A6.26,6.26,0,0,1,33,779Zm77.9,39.43a6.5,6.5,0,1,0-6-7c0,.16,0,.32,0,.49a6.25,6.25,0,0,0,5.95,6.49Zm-21-220.1a6,6,0,1,1-6-6.49,6.26,6.26,0,0,1,6,6.49Zm431.4,296a6.51,6.51,0,1,0-6-7c0,.17,0,.34,0,.51a6.27,6.27,0,0,0,6,6.46ZM120.83,863.82a21.47,21.47,0,1,1-21.48-21.46h0a21.46,21.46,0,0,1,21.47,21.45ZM100,496.3,112.42,490c.89-.51,1.64-.85,2.14,0l5.37,9.31a1.82,1.82,0,0,1-.71,2.47l-1.6.92L132.84,529a1.81,1.81,0,0,1-.69,2.46h0l-48,27.68a1.83,1.83,0,0,1-2.49-.62l-15.2-26.37-1.6.92a1.85,1.85,0,0,1-2.5-.62L57,523.18a1.82,1.82,0,0,1,.71-2.47l14.4-8.31c-3.1.55-7.14.42-9.12-3a7.29,7.29,0,0,1,2.82-9.89c3.69-2.13,8.45-4.05,18.41,5.08C85.65,493,87.78,491,91.46,488.85s8.72.75,9.39,2.43A5.45,5.45,0,0,1,100,496.3Zm-1.79-3.1A4.23,4.23,0,0,0,93,491.63h-.12c-2.17.84-5,1.92-6.14,12.25l7.74-4.46c1.72-.95,4.69-4.52,3.7-6.22Zm-30.08,8.67c-1.77,1-3,4-2,5.68s4.7,3.5,11.35,1.72l5.5-3.18c-2.73-2.54-11.7-6.06-14.84-4.22ZM85.35,508l-25.27,14.6,4,8.44,25.92-15Zm5.37,9.29L69,530.71l14.25,26.9,22.49-14.21Zm17.59,24.57,22-11.43-15.22-26.35L93.28,515.89ZM92.57,514.64l24.27-14.82-3.51-8.31L87.91,506.58Zm30.32-43.23a2.43,2.43,0,0,0,4.67,1.33l19.75-58.26a5.31,5.31,0,1,0-10.09-3.32c0,.13-.08.26-.11.39ZM132,492a2.47,2.47,0,0,0,3.37.24l36.29-29.7a5.24,5.24,0,0,0-6.71-8.06c-.13.12-.27.24-.39.37L132,488.59A2.45,2.45,0,0,0,132,492ZM107.29,465a2.58,2.58,0,0,0,5-1.2l-2.88-22.34a5,5,0,0,0-9.92,1.29,5.33,5.33,0,0,0,.25,1ZM52.13,706.89a13,13,0,1,0-18-5A13.23,13.23,0,0,0,52.13,706.89Zm266.66,81.68a5.39,5.39,0,1,1-7.48-2.56,5.58,5.58,0,0,1,7.47,2.54ZM131.36,580.75a8.49,8.49,0,1,0-9.48-7.37,8.5,8.5,0,0,0,9.48,7.37ZM36.26,464.51a12.64,12.64,0,1,1-17.12-5.15,12.63,12.63,0,0,1,17.12,5.15Zm17.62-59.77a3.54,3.54,0,0,0-3.31-6.16,3.54,3.54,0,0,0,3.31,6.16ZM551.37,771a10.78,10.78,0,1,1-14.6-4.4,10.78,10.78,0,0,1,14.6,4.4Zm12,74.86a10.78,10.78,0,1,1-14.61-4.39,10.77,10.77,0,0,1,14.61,4.39ZM297.33,552a10.78,10.78,0,1,0-14.61-4.39A10.8,10.8,0,0,0,297.33,552ZM85.72,282a10,10,0,1,1-.06,0ZM582.88,806a7.22,7.22,0,1,0-.1.05ZM328.34,586a7.06,7.06,0,1,1-9.56-2.87h0a7,7,0,0,1,9.5,2.76ZM167.77,815.91a10.49,10.49,0,1,1-10.5-10.48h0A10.49,10.49,0,0,1,167.77,815.91ZM636.63,790.4a5,5,0,1,0-6.43-3.7A5.26,5.26,0,0,0,636.63,790.4ZM418.24,588.7a5.52,5.52,0,1,1-6.95-3.57,4.77,4.77,0,0,1,.51-.13A5.25,5.25,0,0,1,418.24,588.7Zm61.09,285.1a8,8,0,1,1-8.5-7.47h.5A7.75,7.75,0,0,1,479.33,873.8ZM197.55,910.27a8,8,0,1,0-4.92-10.51A8.21,8.21,0,0,0,197.55,910.27ZM24,365.09l13.58,4.82,15.18-42.8-13.59-4.82Zm.6,19.21-1.92-15.5,13.18,4.66ZM458.8,801l-19.33.44,9.29,17Zm-6.33,20.26,10.36-17.94,46.5,26.84L499,848Zm-59.24,49.13-4.35,10.22L382.43,873Zm-6.48,12-6.65-7.8-24.59,21,6.65,7.81ZM67.82,793.1l2.24-15.4L56.4,785.15Zm-14-5,11.78,8.2L39.76,833.4,28,825.21ZM220.69,540.77l-18.14,7.74,11.21,10.72ZM199,552.19l11.56,11-40.72,42.55-11.53-11.06Zm114.28,348c-.36,5.15-3.28,9.64-7.91,11.27A11.91,11.91,0,0,1,295,910a13,13,0,0,1-5.4,3.64,12.87,12.87,0,0,1-6.48.56,11.92,11.92,0,0,1-7.22,7.68c-6.51,2.29-14-1.91-16.6-9.38a15.85,15.85,0,0,1-.84-7.06,9.49,9.49,0,0,1-5.19-1.59,9.84,9.84,0,0,1-3.51-4.23v-.16h0l-.59-2.12v-.06A23.87,23.87,0,0,1,255,874.69a24,24,0,0,1-10.25-12.82,25.74,25.74,0,0,1-1.47-7.62,10.88,10.88,0,0,1-4.76-2,11.25,11.25,0,0,1-3.4-3.92,11.37,11.37,0,0,1-1.3-5,11,11,0,0,1,4.31-9,10.76,10.76,0,0,1,9.78-1.71,10.94,10.94,0,0,1,4.44,2.64,30.8,30.8,0,0,1,17-6,11.22,11.22,0,0,1,1.78-4.84,10.81,10.81,0,0,1,13.69-3.74,11.08,11.08,0,0,1,4,3.25,11.53,11.53,0,0,1,2.16,4.73,11.38,11.38,0,0,1-.18,5.19,11,11,0,0,1-2.47,4.52,25.36,25.36,0,0,1,3.65,6.85,24,24,0,0,1,.09,16.41,24.64,24.64,0,0,1,10.47,4l4.94,4.59a24.6,24.6,0,0,1,2.72,4.11l1.36,2.91.17.39a1.18,1.18,0,0,1,.07.2,16.24,16.24,0,0,1-.33,6.21,9.5,9.5,0,0,1-2.74,3.77A38.26,38.26,0,0,1,312,893h0l.49.85a15.89,15.89,0,0,1,.77,3.11Zm-4.6-21.51-.82-1.87h0c-3.41-7.11-9.13-12.28-17.06-13.2a29.1,29.1,0,0,1-4.7,6.63c4.71,2.78,8.73,7.71,11.17,13.73a12,12,0,0,1,8.73,1.71,6.36,6.36,0,0,0,2.47-3,6.54,6.54,0,0,0,.24-4ZM282.49,823a8.31,8.31,0,0,0-5.23-.44c-1.66.59-3.28,1.21-4.17,2.29a10,10,0,0,0-1.91,4.3,29.24,29.24,0,0,1,8.73,2.14,25.71,25.71,0,0,1,6.8,4.71c1.09-1.31,1.17-3.19,1.24-4.92V831a8.18,8.18,0,0,0-1.41-4.92A8,8,0,0,0,282.49,823Zm-45.28,17.55a8.11,8.11,0,0,0,2.4,8.55l.57.53a6.48,6.48,0,0,0,2.84,1.81,25.74,25.74,0,0,1,2.28-7.91,27.63,27.63,0,0,1,5.08-7c-1.22-1.08-3.18-1.22-4.84-1.33h-.4a7.65,7.65,0,0,0-4.89,1.32,7.79,7.79,0,0,0-3,4.07Zm24.12-6.74c-6.22,2.21-11.74,6.39-14.16,11.47-2.26,4.75-1.5,10,.42,15.41s4.9,10.76,9.64,13c5.08,2.43,11.73,1.42,17.95-.78s11.06-5.26,13.48-10.33c2.26-4.75,3.38-11.56,1.46-17s-7-9.81-11.74-12.09c-5.07-2.31-10.83-1.83-17.05.36Zm-9.23,62.62.55,2a6.53,6.53,0,0,0,2.66,2.94,6.3,6.3,0,0,0,3.85.8,12,12,0,0,1,5.72-6.82,28.57,28.57,0,0,1,0-17.7,31.41,31.41,0,0,1-8.28-2c-5.55,5.67-6.32,13.14-4.5,20.82Zm10.12,15c2.06,5.8,8,10,12.91,8.3S282,911,279.94,905.2s-7.9-9.71-12.79-8S260.17,905.65,262.22,911.46Zm21.53-.38a10.25,10.25,0,0,0,4.76-.44,10.1,10.1,0,0,0,4-2.65,16.11,16.11,0,0,1-3.71-6c-2.44-6.88.05-14.16,5.55-17.07-2.37-5.8-5.42-10.87-10-13.1a34.93,34.93,0,0,1-17.05,6c-2.11,4.6-1.29,10.49.5,16.45,6.1-1.19,12.62,2.91,15.05,9.79A15.84,15.84,0,0,1,283.75,911.08Zm7-9.2a10.91,10.91,0,0,0,13.55,6.54c4.88-1.73,7.18-7.86,5.13-13.67s-7.91-9.69-12.79-8-7.91,9.28-5.85,15.13ZM277,844.54a2.21,2.21,0,1,1-3.92,2,2.27,2.27,0,0,1-.2-.55,2.2,2.2,0,0,1,1.3-2.83h0a2.23,2.23,0,0,1,2.83,1.35Zm-17.48,6.18a2.21,2.21,0,1,1-2.82-1.36,2.21,2.21,0,0,1,2.82,1.36v0Zm9.38,9.79.24.07c.08.28.18.62.3,1s.29,1,.45,1.46c-2.32.28-5.68.4-7.63-2.31a3.36,3.36,0,0,1-.34-.78c-.17-.49-.31-.9-.69-.63a1.35,1.35,0,0,0-.29,1.87c3.06,4.27,7.57,5.42,11.39,4s5.7-5.67,5.81-10.89a2.51,2.51,0,0,1,.07-.55c.07-.3.09-.39-.41-.41a1.3,1.3,0,0,0-1.35,1.27v0a8.59,8.59,0,0,1-4.05,7.56c-.15-.47-.29-1-.43-1.38s-.25-.85-.34-1.15c.11-.21.22-.42.34-.62l.15-.28.23-.43a11.2,11.2,0,0,0,.8-1.81,4,4,0,0,0,.16-2.08,3.55,3.55,0,0,0-1.24-2,5.32,5.32,0,0,0-7.43,1.25,5.4,5.4,0,0,0-.79,1.66,3.45,3.45,0,0,0,1.77,3.87,10.49,10.49,0,0,0,1.95.83l1.32.42Zm-2.44-4.61a2.35,2.35,0,0,1,1.65-1.56,2.31,2.31,0,0,1,2.26.19.87.87,0,0,1,.35.47,1.33,1.33,0,0,1-.09.68,8.86,8.86,0,0,1-.62,1.37c-.1.19-.21.4-.34.62l-.12.24-1.18-.37a9,9,0,0,1-1.43-.6,1.12,1.12,0,0,1-.46-.4.94.94,0,0,1,0-.64Z"/></g></g></svg>