<svg xmlns="http://www.w3.org/2000/svg" viewBox="0 0 1440 939.7"><defs><style>.cls-1{fill:#ffd8f1;}.cls-2,.cls-3{fill:#f3bee1;}.cls-3{fill-rule:evenodd;}</style></defs><g id="Layer_2" data-name="Layer 2"><g id="Layer_1-2" data-name="Layer 1"><g id="_6_сщ_штучками" data-name="6 сщ штучками"><path class="cls-1" d="M0,0H1440V877.44c-70,41.87-195.86,65.86-325,61.82-156.43-4.91-273-61.82-383-117.64s-235.5-81.75-372-81.75c-136,0-234,25.93-358,99.69V731l-.34-9.89Z"/><path class="cls-2" d="M30.21,200.26c-12.06-3-24.16,3.64-27,15s4.59,22.95,16.66,26,24.16-3.65,27-14.95S42.28,203.31,30.21,200.26Z"/><path class="cls-2" d="M183.16,272.8a5,5,0,1,1,6.76,1.92A5,5,0,0,1,183.16,272.8Z"/><path class="cls-2" d="M152.46,286.85a11,11,0,1,0,14.91,4.25A11,11,0,0,0,152.46,286.85Z"/><path class="cls-2" d="M1344.09,327.14a3.54,3.54,0,1,0-4.29-1.67A3.28,3.28,0,0,0,1344.09,327.14Z"/><path class="cls-2" d="M1402.29,405a18.71,18.71,0,1,0-20.89-16.25A18.7,18.7,0,0,0,1402.29,405Z"/><path class="cls-2" d="M1279.51,559.31a14.73,14.73,0,1,0-16.43-12.79A14.74,14.74,0,0,0,1279.51,559.31Z"/><path class="cls-2" d="M1278.65,748.3a2.94,2.94,0,0,1,2,5.54l-51.74,21.78a6.28,6.28,0,1,1-4.17-11.82Z"/><path class="cls-2" d="M1302.78,768.36a4.88,4.88,0,0,0-6.69-.1L1227.56,831a10.39,10.39,0,1,0,14.88,14.45L1303.08,775A4.87,4.87,0,0,0,1302.78,768.36Z"/><path class="cls-2" d="M998.55,871.24a13.49,13.49,0,1,1-18-5A13.24,13.24,0,0,1,998.55,871.24Z"/><path class="cls-2" d="M730.94,709.6a3.54,3.54,0,1,0-4.29-1.66A3.28,3.28,0,0,0,730.94,709.6Z"/><path class="cls-2" d="M1102.41,708.1a3,3,0,1,1-4.3-1.66A3.27,3.27,0,0,1,1102.41,708.1Z"/><path class="cls-2" d="M1171.33,905.33a3.54,3.54,0,1,0-4.29-1.67A3.27,3.27,0,0,0,1171.33,905.33Z"/><path class="cls-2" d="M1140.36,822.94a3,3,0,1,1-4.3-1.66A3.28,3.28,0,0,1,1140.36,822.94Z"/><path class="cls-2" d="M1267.18,461.44a3,3,0,1,1-4.29-1.66A3.27,3.27,0,0,1,1267.18,461.44Z"/><path class="cls-2" d="M44.55,554.07A16.39,16.39,0,1,0,64.43,566,16.38,16.38,0,0,0,44.55,554.07Z"/><path class="cls-2" d="M85.5,607.88A7,7,0,1,1,94,613,7,7,0,0,1,85.5,607.88Z"/><path class="cls-2" d="M43.25,665.29A5,5,0,1,0,50,667.21,5,5,0,0,0,43.25,665.29Z"/><path class="cls-2" d="M98.28,552.41a5,5,0,1,1,6.75,1.92A5,5,0,0,1,98.28,552.41Z"/><path class="cls-2" d="M199.07,304a5,5,0,1,0,6.75,1.92A5,5,0,0,0,199.07,304Z"/><path class="cls-2" d="M292,308.75a5,5,0,1,1,6.75,1.92A5,5,0,0,1,292,308.75Z"/><path class="cls-2" d="M141.15,597.59a5,5,0,1,0,6.75,1.92A5,5,0,0,0,141.15,597.59Z"/><path class="cls-2" d="M1272.23,910.24a9.49,9.49,0,1,1-9.48-9.49A9.47,9.47,0,0,1,1272.23,910.24Z"/><path class="cls-2" d="M1173.87,855.81a9.49,9.49,0,1,0-9.49-9.49A9.49,9.49,0,0,0,1173.87,855.81Z"/><path class="cls-2" d="M817.86,766.93a13,13,0,1,1-13-13A13,13,0,0,1,817.86,766.93Z"/><path class="cls-2" d="M10.3,438.36c2.86-11.32,15-18,27-14.95s19.53,14.69,16.66,26-15,18-27,14.95S7.44,449.66,10.3,438.36Z"/><path class="cls-2" d="M912.73,829.35a8,8,0,1,1-8-7.49A7.75,7.75,0,0,1,912.73,829.35Z"/><path class="cls-2" d="M1078.5,778.92a7.51,7.51,0,1,0-8-7.49A7.75,7.75,0,0,0,1078.5,778.92Z"/><path class="cls-2" d="M1065.52,900.25a8,8,0,1,1-8-7.49A7.75,7.75,0,0,1,1065.52,900.25Z"/><path class="cls-2" d="M742,802.88a7.5,7.5,0,1,0-8-7.48A7.75,7.75,0,0,0,742,802.88Z"/><path class="cls-2" d="M1035.56,796.39a8,8,0,1,1-8-7.49A7.75,7.75,0,0,1,1035.56,796.39Z"/><path class="cls-2" d="M1137.48,906.16l-18.06-6.4,20.17-56.93,18.06,6.4Z"/><path class="cls-2" d="M1117.67,904.69l2.54,20.62,15-14.42Z"/><path class="cls-2" d="M3.31,520.85l6.52,12.54,32.51-16.92-6.52-12.54Z"/><path class="cls-2" d="M1081.1,813.68l-12.82-3.13,3.12,12.83Z"/><path class="cls-2" d="M1073.34,825.92l10-10,25.91,25.91-10,10Z"/><path class="cls-2" d="M869.56,782.94l-4.34,10.24-6.45-7.57Z"/><path class="cls-2" d="M863.09,795l-6.65-7.8-24.6,21L838.5,816Z"/><path class="cls-2" d="M101.38,284.25l13.31-8.55-31.47-49L69.9,235.23Z"/><path class="cls-2" d="M117.41,279.94l3.23,19.22L104.5,288.23Z"/><path class="cls-2" d="M960.77,779a2.24,2.24,0,1,0-2.83-1.37A2.21,2.21,0,0,0,960.77,779Z"/><path class="cls-2" d="M943.3,785.14a2.23,2.23,0,1,0-2.83-1.37A2.22,2.22,0,0,0,943.3,785.14Z"/><path class="cls-3" d="M954.25,792.15l-.24-.07h0l-1-.33-.29-.09a10.59,10.59,0,0,1-1.94-.83A3.42,3.42,0,0,1,949,787a5.33,5.33,0,0,1,8.22-2.91,3.56,3.56,0,0,1,1.24,2,4,4,0,0,1-.16,2.08,11.5,11.5,0,0,1-.8,1.8l-.39.71-.33.62c.09.3.21.7.34,1.15s.28.93.43,1.39a8.6,8.6,0,0,0,4-7.57,1.31,1.31,0,0,1,1.35-1.3c.5,0,.48.11.41.41a2.47,2.47,0,0,0-.07.55c-.11,5.22-2,9.49-5.81,10.89s-8.33.26-11.39-4a1.35,1.35,0,0,1,.29-1.88c.38-.27.52.14.68.63a3.7,3.7,0,0,0,.35.78c2,2.72,5.31,2.6,7.62,2.32l-.09-.31a2.81,2.81,0,0,1-.1-.31c0-.11-.07-.21-.1-.32l-.08-.28-.08-.24Zm-1-6.24a2.37,2.37,0,0,0-1.65,1.57.92.92,0,0,0,0,.64c0,.07.13.21.46.39a7.76,7.76,0,0,0,1.43.6l1.17.37.13-.23.34-.63a8.35,8.35,0,0,0,.62-1.36,1.38,1.38,0,0,0,.09-.68.91.91,0,0,0-.35-.48A2.33,2.33,0,0,0,953.22,785.91Z"/><path class="cls-3" d="M990.45,843c4.63-1.64,7.55-6.13,7.91-11.28l-.13-3.33a16.71,16.71,0,0,0-.76-3.12c-.13-.21-.3-.52-.51-.87h0a39.34,39.34,0,0,0-3.28-5.15,9.42,9.42,0,0,0,2.74-3.76,16.46,16.46,0,0,0,.33-6.21l0-.1,0-.05,0-.06-.16-.39-1.36-2.91a25.9,25.9,0,0,0-2.72-4.11l-4.94-4.6a24.93,24.93,0,0,0-10.47-4,24,24,0,0,0-.1-16.42,25.39,25.39,0,0,0-3.64-6.86,11,11,0,0,0,2.47-4.51,11.42,11.42,0,0,0,.18-5.2,11.59,11.59,0,0,0-2.16-4.73,11.13,11.13,0,0,0-4-3.25,10.79,10.79,0,0,0-13.7,3.74,11.22,11.22,0,0,0-1.78,4.84,30.85,30.85,0,0,0-17,6,11,11,0,0,0-4.43-2.65,10.8,10.8,0,0,0-5.11-.33,10.62,10.62,0,0,0-4.67,2,10.79,10.79,0,0,0-3.23,4,11.17,11.17,0,0,0-1.08,5.06,11.38,11.38,0,0,0,4.69,9,11,11,0,0,0,4.76,2,26.14,26.14,0,0,0,1.48,7.62,24.06,24.06,0,0,0,10.25,12.82,23.92,23.92,0,0,0-5.83,22.63v.06l.59,2.12a1.18,1.18,0,0,0,.07.2,9.72,9.72,0,0,0,3.51,4.23,9.45,9.45,0,0,0,5.19,1.6,15.85,15.85,0,0,0,.84,7.06c2.64,7.47,10.09,11.67,16.6,9.37a11.83,11.83,0,0,0,7.21-7.67,13.11,13.11,0,0,0,6.49-.56,12.85,12.85,0,0,0,5.39-3.65A11.88,11.88,0,0,0,990.45,843Zm2.49-34.67.82,1.87a6.53,6.53,0,0,1-.21,4,6.27,6.27,0,0,1-2.47,3,12,12,0,0,0-8.73-1.7c-2.44-6-6.46-11-11.17-13.75a29,29,0,0,0,4.69-6.63c7.93.91,13.66,6.09,17.07,13.21Zm-30.63-54.17c1.66-.59,3.58-.11,5.22.44a8,8,0,0,1,4.06,3.08,8.07,8.07,0,0,1,1.41,4.92v.08c-.07,1.73-.15,3.62-1.24,4.92a26.18,26.18,0,0,0-6.8-4.71,29.47,29.47,0,0,0-8.73-2.14,10,10,0,0,1,1.91-4.3C959,755.4,960.65,754.78,962.31,754.19Zm-40,23.15a8.11,8.11,0,0,1-.09-5.15,7.78,7.78,0,0,1,3-4.1,7.69,7.69,0,0,1,4.89-1.31l.23,0h.17c1.66.1,3.62.24,4.83,1.32a28.11,28.11,0,0,0-5.07,7,25.8,25.8,0,0,0-2.28,7.92,6.4,6.4,0,0,1-2.84-1.81c-.19-.18-.38-.36-.58-.53A8.1,8.1,0,0,1,922.35,777.34Zm9.87-.42c2.42-5.08,7.94-9.27,14.16-11.47s12-2.68,17-.25c4.75,2.27,9.83,6.68,11.74,12.09s.8,12.21-1.46,17c-2.42,5.08-7.26,8.14-13.48,10.33s-12.87,3.21-18,.78c-4.74-2.28-7.73-7.63-9.65-13S930,781.67,932.22,776.92Zm5.48,53.15-.55-2c-1.82-7.68-1-15.16,4.54-20.85a31.42,31.42,0,0,0,8.27,2,28.27,28.27,0,0,0,0,17.7,12.08,12.08,0,0,0-5.73,6.82,6.17,6.17,0,0,1-3.84-.8A6.48,6.48,0,0,1,937.7,830.07Zm22.48,21.29c-4.89,1.73-10.85-2.49-12.91-8.3s.05-12.52,4.93-14.25,10.73,2.17,12.79,8S965.06,849.63,960.18,851.36Zm13.38-9.13a10,10,0,0,1-4.76.45,16,16,0,0,0-.86-6.93c-2.43-6.89-9-11-15.05-9.8-1.79-6-2.61-11.86-.5-16.45a37.55,37.55,0,0,0,8.9-1.89,37.18,37.18,0,0,0,8.14-4.15c4.55,2.24,7.6,7.31,10,13.12-5.5,2.9-8,10.19-5.54,17.07a15.91,15.91,0,0,0,3.69,5.93A10,10,0,0,1,973.56,842.23ZM989.38,840a10.89,10.89,0,0,1-13.54-6.54c-2.06-5.81,1-13.37,5.89-15.1s10.73,2.16,12.78,8S994.27,838.29,989.38,840Z"/><path class="cls-2" d="M1315.91,421.55a10.78,10.78,0,1,0-14.61-4.39A10.79,10.79,0,0,0,1315.91,421.55Z"/><path class="cls-2" d="M1328.16,465.85a8,8,0,1,1-8-7.49A7.75,7.75,0,0,1,1328.16,465.85Z"/><path class="cls-2" d="M1375,434.05l-13.19.3,6.33,11.57Z"/><path class="cls-2" d="M1370.63,447.88l7.07-12.26L1409.43,454l-7.07,12.24Z"/><path class="cls-2" d="M1405.67,517.51l-2.24,15.4L1392,525Z"/><path class="cls-2" d="M1401.19,536.13l-11.78-8.21L1363.57,565l11.78,8.2Z"/><path class="cls-2" d="M1278.11,343.5,1272.19,330l13.83,5Z"/><path class="cls-2" d="M1289.05,337.38l-8.16,8.72,32.1,30,8.15-8.72Z"/><path class="cls-2" d="M1286.21,701.53c0,7.45-6.48,13.48-14.48,13.48s-14.48-6-14.48-13.48,6.48-13.49,14.48-13.49S1286.21,694.08,1286.21,701.53Z"/><path class="cls-2" d="M1265.24,645.1a6.51,6.51,0,1,0-6-6.49A6.25,6.25,0,0,0,1265.24,645.1Z"/><path class="cls-2" d="M1413,780.42A21.47,21.47,0,1,1,1391.57,759,21.48,21.48,0,0,1,1413,780.42Z"/><path class="cls-2" d="M1300.69,883.77a21.47,21.47,0,1,0-21.47-21.47A21.47,21.47,0,0,0,1300.69,883.77Z"/><path class="cls-2" d="M935.7,877.28a15.48,15.48,0,1,1-15.48-15.48A15.48,15.48,0,0,1,935.7,877.28Z"/><path class="cls-2" d="M1217.81,888.77a15.48,15.48,0,1,0-15.48-15.48A15.48,15.48,0,0,0,1217.81,888.77Z"/><path class="cls-3" d="M1421.61,620.66l-30.34,4.56a12,12,0,0,0,5.2-9.9c-.22-4-9.1-13.43-17.87-11.64-9.18,1.87-15,4.68-26.1,27.81-14.41-26-25.69-25.31-34.86-23.44a16,16,0,0,0-12.79,18.67c1.74,8.51,10.06,11.61,16.9,12.63l-35.83,7.29a4,4,0,0,0-3.19,4.67l4.71,23.15a4,4,0,0,0,4.77,3.06l4-.82,13.34,65.61a4,4,0,0,0,4.76,3.05l119.44-24.29a4,4,0,0,0,3.19-4.67l-13.34-65.6,4-.81a4,4,0,0,0,3.19-4.68l-4.7-23.14C1425.62,620,1423.8,620.21,1421.61,620.66Zm-41.61-10c4.48-.22,8.83,2.62,9.7,6.87s-7.81,9.63-12.2,10.52l-19.27,3.91c9.67-20.76,16.26-21,21.37-21.28Zm-67.18,14.47c-.87-4.25,3.66-9.58,8.06-10.48,7.8-1.59,24.09,11.94,28.1,19.2l-13.68,2.79C1320.18,635.66,1313.68,629.36,1312.82,625.1Zm-23.25,27.23,62.9-12.79,4.09,20.06-64.49,13.13Zm13,23.08,54.62-12.72,13.19,64.84-56.85,14Zm128,42.28-53.82,8.54-13.18-64.83,53.65-9.31Zm-6.64-73.39-61,14-4.09-20.07,63.54-13.73Z"/><path class="cls-2" d="M1313.72,596.09a8.49,8.49,0,1,0-9.48-7.37A8.49,8.49,0,0,0,1313.72,596.09Z"/><path class="cls-2" d="M1356.08,824.58l-14.92-4.42,5.41,14.59Z"/><path class="cls-2" d="M1349.14,837.74l9.79-10.49,33,30.89-9.8,10.48Z"/><path class="cls-2" d="M1151.4,756.23l11.13,10.87-13.16,4.56Z"/><path class="cls-2" d="M1163.8,770.81l-13.56,4.68L1165,818.24l13.56-4.69Z"/><path class="cls-2" d="M1355.41,517.28v14.35h-45.23V517.28Z"/><path class="cls-2" d="M1359.32,531.63l13.92-7-13.92-7Z"/><path class="cls-2" d="M1223.81,700.63a18.71,18.71,0,1,1-20.88-16.26A18.7,18.7,0,0,1,1223.81,700.63Z"/><path class="cls-2" d="M282.75,543.17a1.58,1.58,0,0,0-1,2l8.78,29a3.39,3.39,0,1,0,6.35-2.34L284.75,544A1.59,1.59,0,0,0,282.75,543.17Z"/><path class="cls-2" d="M292.41,535.56a2.64,2.64,0,0,1,3.61-3.83l38.47,32.19a5.61,5.61,0,1,1-7.69,8.15Z"/><path class="cls-2" d="M80.55,517.63A11.28,11.28,0,1,0,68,507.83,11.28,11.28,0,0,0,80.55,517.63Z"/><path class="cls-2" d="M45.32,292.3a10.79,10.79,0,1,1-14.61-4.39A10.78,10.78,0,0,1,45.32,292.3Z"/><path class="cls-2" d="M72.91,403.94a7.51,7.51,0,1,0-8-7.49A7.75,7.75,0,0,0,72.91,403.94Z"/><path class="cls-2" d="M41.09,334.76l13.19-.3-6.86,11.88Z"/><path class="cls-2" d="M57,336,50,348.29,81.7,366.62l7.07-12.25Z"/><path class="cls-2" d="M252.15,399.26a10.3,10.3,0,1,1-10.3-10.3A10.3,10.3,0,0,1,252.15,399.26Z"/><path class="cls-3" d="M197.23,402.69a41.19,41.19,0,1,0,29.12,12.06A41.24,41.24,0,0,0,197.23,402.69Zm0,68.66a27.47,27.47,0,1,1,19.41-8A27.42,27.42,0,0,1,197.23,471.35Z"/><path class="cls-3" d="M139.28,361.5H255.17a24.51,24.51,0,0,1,24.44,24.44V501.83a24.51,24.51,0,0,1-24.44,24.44H139.28a24.51,24.51,0,0,1-24.44-24.44V385.94a24.51,24.51,0,0,1,24.44-24.44ZM262.74,509.4a10.69,10.69,0,0,0,3.14-7.57V385.94a10.7,10.7,0,0,0-10.71-10.71H139.28a10.7,10.7,0,0,0-10.71,10.71V501.83a10.72,10.72,0,0,0,10.71,10.71H255.17A10.7,10.7,0,0,0,262.74,509.4Z"/></g></g></g></svg>